<svg width="188" height="64" viewBox="0 0 188 64" fill="none" xmlns="http://www.w3.org/2000/svg">
<path d="M23.0681 14.6091C26.2672 10.3158 32.6989 10.3158 35.898 14.6091L45.4934 27.4865C49.4255 32.7635 45.6593 40.2665 39.0784 40.2665H19.8877C13.3069 40.2665 9.54071 32.7635 13.4728 27.4865L23.0681 14.6091Z" fill="#4437C3"/>
<path d="M35.8981 50.3662C32.699 54.6595 26.2673 54.6595 23.0681 50.3662L13.4728 37.4888C9.54073 32.2118 13.3069 24.7088 19.8877 24.7088L39.0784 24.7088C45.6593 24.7088 49.4255 32.2118 45.4934 37.4888L35.8981 50.3662Z" fill="#4437C3"/>
<path d="M26.2955 20.0534C27.8968 18.0515 30.9415 18.0515 32.5428 20.0534L39.876 29.2213C41.971 31.8404 40.1062 35.7199 36.7524 35.7199H22.0859C18.732 35.7199 16.8673 31.8405 18.9622 29.2214L26.2955 20.0534Z" fill="white"/>
<line x1="17.0134" y1="26.196" x2="41.8247" y2="26.196" stroke="#4437C3" stroke-width="6"/>
<path d="M60.7757 46.324C59.7437 46.204 58.9277 45.844 58.3277 45.244C57.7517 44.644 57.4637 43.888 57.4637 42.976C57.4637 42.28 57.6317 41.56 57.9677 40.816L66.2117 22.06C66.6677 21.004 67.4597 20.476 68.5877 20.476C69.6917 20.476 70.4717 21.004 70.9277 22.06L79.1717 40.816C79.5077 41.608 79.6757 42.328 79.6757 42.976C79.6757 43.888 79.3757 44.644 78.7757 45.244C78.1997 45.844 77.3837 46.204 76.3277 46.324L73.3037 39.484H63.8357L60.7757 46.324ZM71.8277 35.38L67.8677 25.516L67.4357 25.696L68.2997 27.928L65.2757 35.38H71.8277ZM83.1806 22.996C83.1806 22.396 83.4086 21.88 83.8646 21.448C84.3446 21.016 84.9206 20.8 85.5926 20.8H101.901C101.901 22.24 101.649 23.296 101.145 23.968C100.665 24.616 99.8726 24.94 98.7686 24.94H88.0046V31.024H97.5806C97.5806 32.464 97.3286 33.52 96.8246 34.192C96.3446 34.84 95.5526 35.164 94.4486 35.164H88.0046V42.904C88.0046 44.104 87.6206 44.98 86.8526 45.532C86.0846 46.06 84.8606 46.324 83.1806 46.324V22.996ZM112.769 46.324C110.801 46.324 109.001 45.94 107.369 45.172C105.737 44.38 104.441 43.312 103.481 41.968C102.545 40.624 102.077 39.16 102.077 37.576V29.188C102.077 27.604 102.545 26.152 103.481 24.832C104.441 23.488 105.737 22.432 107.369 21.664C109.001 20.872 110.801 20.476 112.769 20.476C114.737 20.476 116.537 20.872 118.169 21.664C119.825 22.432 121.121 23.488 122.057 24.832C123.017 26.152 123.497 27.604 123.497 29.188V37.576C123.497 39.16 123.017 40.624 122.057 41.968C121.121 43.312 119.825 44.38 118.169 45.172C116.537 45.94 114.737 46.324 112.769 46.324ZM112.769 42.112C114.569 42.112 116.009 41.692 117.089 40.852C118.169 39.988 118.709 38.872 118.709 37.504V29.296C118.709 27.904 118.169 26.788 117.089 25.948C116.009 25.084 114.569 24.652 112.769 24.652C110.993 24.652 109.565 25.084 108.485 25.948C107.405 26.788 106.865 27.904 106.865 29.296V37.504C106.865 38.872 107.405 39.988 108.485 40.852C109.565 41.692 110.993 42.112 112.769 42.112ZM126.985 22.996C126.985 22.372 127.213 21.856 127.669 21.448C128.125 21.016 128.701 20.8 129.397 20.8H139.009C141.601 20.8 143.605 21.484 145.021 22.852C146.461 24.22 147.181 26.14 147.181 28.612C147.181 30.028 146.893 31.228 146.317 32.212C145.741 33.172 144.865 33.94 143.689 34.516V34.624C145.801 35.56 146.857 37.336 146.857 39.952V42.76C146.857 43.912 146.449 44.8 145.633 45.424C144.817 46.024 143.617 46.324 142.033 46.324V40.168C142.033 38.896 141.781 37.96 141.277 37.36C140.773 36.76 140.005 36.46 138.973 36.46H131.737V42.76C131.737 43.936 131.329 44.824 130.513 45.424C129.721 46.024 128.545 46.324 126.985 46.324V22.996ZM138.757 32.356C139.909 32.356 140.797 32.032 141.421 31.384C142.045 30.712 142.357 29.776 142.357 28.576C142.357 26.128 141.157 24.904 138.757 24.904H131.737V32.356H138.757ZM153.623 46.324C152.591 46.204 151.775 45.844 151.175 45.244C150.599 44.644 150.311 43.888 150.311 42.976C150.311 42.28 150.479 41.56 150.815 40.816L159.059 22.06C159.515 21.004 160.307 20.476 161.435 20.476C162.539 20.476 163.319 21.004 163.775 22.06L172.019 40.816C172.355 41.608 172.523 42.328 172.523 42.976C172.523 43.888 172.223 44.644 171.623 45.244C171.047 45.844 170.231 46.204 169.175 46.324L166.151 39.484H156.683L153.623 46.324ZM164.675 35.38L160.715 25.516L160.283 25.696L161.147 27.928L158.123 35.38H164.675Z" fill="black"/>
</svg>