<svg width="150" height="150" viewBox="4 8 50 50" fill="none" xmlns="http://www.w3.org/2000/svg">
  <path d="M23.068 14.61c3.2-4.294 9.63-4.294 12.83 0l9.595 12.877c3.932 5.277.166 12.78-6.415 12.78h-19.19c-6.581 0-10.347-7.504-6.415-12.78z" fill="#4437C3"/>
  <path d="M35.898 50.366c-3.199 4.294-9.63 4.294-12.83 0L13.473 37.49c-3.932-5.277-.166-12.78 6.415-12.78h19.19c6.581 0 10.347 7.503 6.415 12.78z" fill="#4437C3"/>
  <path d="M26.296 20.053a4 4 0 0 1 6.247 0l7.333 9.168c2.095 2.62.23 6.499-3.124 6.499H22.086c-3.354 0-5.219-3.88-3.124-6.499z" fill="#fff"/>
  <path stroke="#4437C3" stroke-width="6" d="M17.013 26.196h24.812"/>
</svg>
